<svg width="383" height="74" viewBox="0 0 383 74" fill="none" xmlns="http://www.w3.org/2000/svg">
<path d="M125.856 11.6719C125.856 6.14903 130.333 1.67188 135.856 1.67188H144.856V4.67188C144.856 10.1947 140.379 14.6719 134.856 14.6719H125.856V11.6719Z" fill="#15B725"/>
<path d="M28.32 73.824C22.816 73.824 17.92 72.672 13.632 70.368C9.408 68.064 6.08 64.896 3.648 60.864C1.216 56.832 0 52.256 0 47.136V1.152H13.056V46.464C13.056 49.408 13.696 52.064 14.976 54.432C16.32 56.8 18.144 58.656 20.448 60C22.752 61.28 25.376 61.92 28.32 61.92C31.328 61.92 33.952 61.28 36.192 60C38.496 58.656 40.288 56.8 41.568 54.432C42.912 52.064 43.584 49.408 43.584 46.464V1.152H56.64V47.136C56.64 52.256 55.424 56.832 52.992 60.864C50.56 64.896 47.2 68.064 42.912 70.368C38.688 72.672 33.824 73.824 28.32 73.824Z" fill="#15B725"/>
<path d="M68.6182 72.672V20.448H80.4263V30.72L79.4662 28.896C80.6822 25.76 82.6663 23.392 85.4183 21.792C88.2343 20.128 91.4982 19.296 95.2103 19.296C99.0503 19.296 102.442 20.128 105.386 21.792C108.394 23.456 110.73 25.792 112.394 28.8C114.058 31.744 114.89 35.168 114.89 39.072V72.672H102.314V42.048C102.314 39.744 101.866 37.76 100.97 36.096C100.074 34.432 98.8262 33.152 97.2262 32.256C95.6902 31.296 93.8662 30.816 91.7542 30.816C89.7062 30.816 87.8822 31.296 86.2822 32.256C84.6823 33.152 83.4343 34.432 82.5383 36.096C81.6423 37.76 81.1943 39.744 81.1943 42.048V72.672H68.6182Z" fill="#15B725"/>
<path d="M125.524 72.672V20.448H138.1V72.672H125.524Z" fill="#15B725"/>
<path d="M176.304 73.824C171.76 73.824 167.536 72.992 163.632 71.328C159.792 69.664 156.464 67.36 153.648 64.416C150.896 61.408 148.88 57.92 147.6 53.952L158.448 49.248C160.176 53.344 162.672 56.576 165.936 58.944C169.2 61.248 172.88 62.4 176.976 62.4C179.28 62.4 181.264 62.048 182.928 61.344C184.656 60.576 185.968 59.552 186.864 58.272C187.824 56.992 188.304 55.456 188.304 53.664C188.304 51.552 187.664 49.824 186.384 48.48C185.168 47.072 183.312 45.984 180.816 45.216L167.088 40.8C161.52 39.072 157.328 36.48 154.512 33.024C151.696 29.568 150.288 25.504 150.288 20.832C150.288 16.736 151.28 13.12 153.264 9.984C155.312 6.848 158.128 4.416 161.712 2.688C165.36 0.896 169.52 0 174.192 0C178.48 0 182.416 0.768 186 2.304C189.584 3.776 192.656 5.856 195.216 8.544C197.84 11.168 199.792 14.272 201.072 17.856L190.32 22.656C188.912 19.072 186.8 16.32 183.984 14.4C181.168 12.416 177.904 11.424 174.192 11.424C172.016 11.424 170.096 11.808 168.432 12.576C166.768 13.28 165.456 14.304 164.496 15.648C163.6 16.928 163.152 18.464 163.152 20.256C163.152 22.24 163.792 24 165.072 25.536C166.352 27.008 168.304 28.16 170.928 28.992L184.08 33.12C189.776 34.976 194.032 37.536 196.848 40.8C199.728 44.064 201.168 48.096 201.168 52.896C201.168 56.992 200.112 60.608 198 63.744C195.888 66.88 192.976 69.344 189.264 71.136C185.552 72.928 181.232 73.824 176.304 73.824Z" fill="#15B725"/>
<path d="M236.636 73.824C231.26 73.824 226.556 72.608 222.524 70.176C218.492 67.744 215.356 64.448 213.116 60.288C210.876 56.128 209.756 51.52 209.756 46.464C209.756 41.216 210.876 36.576 213.116 32.544C215.42 28.448 218.524 25.216 222.428 22.848C226.396 20.48 230.812 19.296 235.676 19.296C239.772 19.296 243.356 19.968 246.428 21.312C249.564 22.656 252.22 24.512 254.396 26.88C256.572 29.248 258.236 31.968 259.388 35.04C260.54 38.048 261.116 41.312 261.116 44.832C261.116 45.728 261.052 46.656 260.924 47.616C260.86 48.576 260.7 49.408 260.444 50.112H220.124V40.512H253.34L247.388 45.024C247.964 42.08 247.804 39.456 246.908 37.152C246.076 34.848 244.668 33.024 242.684 31.68C240.764 30.336 238.428 29.664 235.676 29.664C233.052 29.664 230.716 30.336 228.668 31.68C226.62 32.96 225.052 34.88 223.964 37.44C222.94 39.936 222.556 42.976 222.812 46.56C222.556 49.76 222.972 52.608 224.06 55.104C225.212 57.536 226.876 59.424 229.052 60.768C231.292 62.112 233.852 62.784 236.732 62.784C239.612 62.784 242.044 62.176 244.028 60.96C246.076 59.744 247.676 58.112 248.828 56.064L259.004 61.056C257.98 63.552 256.38 65.76 254.204 67.68C252.028 69.6 249.436 71.104 246.428 72.192C243.484 73.28 240.22 73.824 236.636 73.824Z" fill="#15B725"/>
<path d="M295.418 73.824C290.042 73.824 285.338 72.608 281.306 70.176C277.274 67.744 274.137 64.448 271.897 60.288C269.657 56.128 268.538 51.52 268.538 46.464C268.538 41.216 269.657 36.576 271.897 32.544C274.201 28.448 277.306 25.216 281.21 22.848C285.178 20.48 289.593 19.296 294.457 19.296C298.553 19.296 302.138 19.968 305.21 21.312C308.346 22.656 311.001 24.512 313.177 26.88C315.353 29.248 317.017 31.968 318.169 35.04C319.321 38.048 319.897 41.312 319.897 44.832C319.897 45.728 319.834 46.656 319.706 47.616C319.642 48.576 319.481 49.408 319.225 50.112H278.905V40.512H312.121L306.169 45.024C306.745 42.08 306.586 39.456 305.69 37.152C304.858 34.848 303.45 33.024 301.466 31.68C299.546 30.336 297.209 29.664 294.457 29.664C291.833 29.664 289.497 30.336 287.449 31.68C285.401 32.96 283.834 34.88 282.746 37.44C281.722 39.936 281.338 42.976 281.594 46.56C281.338 49.76 281.753 52.608 282.841 55.104C283.993 57.536 285.657 59.424 287.833 60.768C290.073 62.112 292.633 62.784 295.513 62.784C298.393 62.784 300.826 62.176 302.81 60.96C304.858 59.744 306.457 58.112 307.609 56.064L317.785 61.056C316.761 63.552 315.162 65.76 312.986 67.68C310.81 69.6 308.218 71.104 305.21 72.192C302.266 73.28 299.002 73.824 295.418 73.824Z" fill="#15B725"/>
<path d="M353.719 73.824C348.663 73.824 344.151 72.64 340.183 70.272C336.215 67.84 333.079 64.544 330.775 60.384C328.471 56.224 327.319 51.616 327.319 46.56C327.319 41.44 328.471 36.832 330.775 32.736C333.079 28.64 336.215 25.376 340.183 22.944C344.215 20.512 348.695 19.296 353.623 19.296C357.591 19.296 361.111 20.096 364.183 21.696C367.319 23.232 369.783 25.408 371.575 28.224L369.655 30.816V0H382.231V72.672H370.327V62.592L371.671 65.088C369.879 67.904 367.383 70.08 364.183 71.616C360.983 73.088 357.495 73.824 353.719 73.824ZM355.063 62.304C357.943 62.304 360.471 61.632 362.647 60.288C364.823 58.944 366.519 57.088 367.735 54.72C369.015 52.352 369.655 49.632 369.655 46.56C369.655 43.552 369.015 40.864 367.735 38.496C366.519 36.064 364.823 34.176 362.647 32.832C360.471 31.488 357.943 30.816 355.063 30.816C352.247 30.816 349.719 31.52 347.479 32.928C345.239 34.272 343.479 36.128 342.199 38.496C340.983 40.8 340.375 43.488 340.375 46.56C340.375 49.632 340.983 52.352 342.199 54.72C343.479 57.088 345.239 58.944 347.479 60.288C349.719 61.632 352.247 62.304 355.063 62.304Z" fill="#15B725"/>
</svg>
